<mxfile host="app.diagrams.net" modified="2023-04-21T12:12:48.607Z" agent="Mozilla/5.0 (Windows NT 10.0; Win64; x64) AppleWebKit/537.36 (KHTML, like Gecko) Chrome/108.0.0.0 Safari/537.36 Edg/108.0.1462.42" etag="rC9BFrVf7AD--MBwtq01" version="21.2.1" type="github">
  <diagram name="第 1 页" id="wBqTDlrh9hlUzduM-qcQ">
    <mxGraphModel dx="1156" dy="657" grid="1" gridSize="10" guides="1" tooltips="1" connect="1" arrows="1" fold="1" page="1" pageScale="1" pageWidth="827" pageHeight="1169" math="0" shadow="0">
      <root>
        <mxCell id="0" />
        <mxCell id="1" parent="0" />
        <mxCell id="Xt2UL79NBrmuucX9y0JM-1" value="验证码登录" style="rounded=0;whiteSpace=wrap;html=1;" parent="1" vertex="1">
          <mxGeometry x="120" y="40" width="120" height="60" as="geometry" />
        </mxCell>
        <mxCell id="Xt2UL79NBrmuucX9y0JM-2" value="输入手机号码" style="rounded=1;whiteSpace=wrap;html=1;" parent="1" vertex="1">
          <mxGeometry x="120" y="160" width="120" height="60" as="geometry" />
        </mxCell>
        <mxCell id="Xt2UL79NBrmuucX9y0JM-4" value="" style="endArrow=classic;html=1;rounded=0;exitX=0.5;exitY=1;exitDx=0;exitDy=0;entryX=0.5;entryY=0;entryDx=0;entryDy=0;" parent="1" source="Xt2UL79NBrmuucX9y0JM-1" target="Xt2UL79NBrmuucX9y0JM-2" edge="1">
          <mxGeometry width="50" height="50" relative="1" as="geometry">
            <mxPoint x="410" y="220" as="sourcePoint" />
            <mxPoint x="460" y="170" as="targetPoint" />
          </mxGeometry>
        </mxCell>
        <mxCell id="Xt2UL79NBrmuucX9y0JM-5" value="用户端" style="text;html=1;align=center;verticalAlign=middle;resizable=0;points=[];autosize=1;strokeColor=none;fillColor=none;" parent="1" vertex="1">
          <mxGeometry x="150" width="60" height="30" as="geometry" />
        </mxCell>
        <mxCell id="Xt2UL79NBrmuucX9y0JM-18" style="edgeStyle=orthogonalEdgeStyle;rounded=0;orthogonalLoop=1;jettySize=auto;html=1;exitX=1;exitY=0.5;exitDx=0;exitDy=0;entryX=0;entryY=0.5;entryDx=0;entryDy=0;" parent="1" source="Xt2UL79NBrmuucX9y0JM-11" target="Xt2UL79NBrmuucX9y0JM-15" edge="1">
          <mxGeometry relative="1" as="geometry" />
        </mxCell>
        <mxCell id="Xt2UL79NBrmuucX9y0JM-11" value="点击获取验证码" style="rounded=0;whiteSpace=wrap;html=1;" parent="1" vertex="1">
          <mxGeometry x="120" y="280" width="120" height="60" as="geometry" />
        </mxCell>
        <mxCell id="Xt2UL79NBrmuucX9y0JM-12" value="" style="endArrow=classic;html=1;rounded=0;exitX=0.5;exitY=1;exitDx=0;exitDy=0;entryX=0.5;entryY=0;entryDx=0;entryDy=0;" parent="1" source="Xt2UL79NBrmuucX9y0JM-2" target="Xt2UL79NBrmuucX9y0JM-11" edge="1">
          <mxGeometry width="50" height="50" relative="1" as="geometry">
            <mxPoint x="410" y="210" as="sourcePoint" />
            <mxPoint x="460" y="160" as="targetPoint" />
          </mxGeometry>
        </mxCell>
        <mxCell id="Xt2UL79NBrmuucX9y0JM-13" value="后端" style="text;html=1;align=center;verticalAlign=middle;resizable=0;points=[];autosize=1;strokeColor=none;fillColor=none;" parent="1" vertex="1">
          <mxGeometry x="515" width="50" height="30" as="geometry" />
        </mxCell>
        <mxCell id="Xt2UL79NBrmuucX9y0JM-14" value="前端" style="text;html=1;align=center;verticalAlign=middle;resizable=0;points=[];autosize=1;strokeColor=none;fillColor=none;" parent="1" vertex="1">
          <mxGeometry x="845" width="50" height="30" as="geometry" />
        </mxCell>
        <mxCell id="Xt2UL79NBrmuucX9y0JM-21" style="edgeStyle=orthogonalEdgeStyle;rounded=0;orthogonalLoop=1;jettySize=auto;html=1;exitX=1;exitY=0.5;exitDx=0;exitDy=0;" parent="1" source="Xt2UL79NBrmuucX9y0JM-15" target="Xt2UL79NBrmuucX9y0JM-20" edge="1">
          <mxGeometry relative="1" as="geometry" />
        </mxCell>
        <mxCell id="cuZhw7LWAMA9tIme9xCt-2" style="edgeStyle=orthogonalEdgeStyle;rounded=0;orthogonalLoop=1;jettySize=auto;html=1;exitX=0.5;exitY=1;exitDx=0;exitDy=0;entryX=0.5;entryY=0;entryDx=0;entryDy=0;" edge="1" parent="1" source="Xt2UL79NBrmuucX9y0JM-15" target="cuZhw7LWAMA9tIme9xCt-1">
          <mxGeometry relative="1" as="geometry" />
        </mxCell>
        <mxCell id="Xt2UL79NBrmuucX9y0JM-15" value="判断手机号码格式是否正确" style="rhombus;whiteSpace=wrap;html=1;" parent="1" vertex="1">
          <mxGeometry x="450" y="270" width="180" height="80" as="geometry" />
        </mxCell>
        <mxCell id="Xt2UL79NBrmuucX9y0JM-23" style="edgeStyle=orthogonalEdgeStyle;rounded=0;orthogonalLoop=1;jettySize=auto;html=1;exitX=0.5;exitY=0;exitDx=0;exitDy=0;entryX=1;entryY=0.5;entryDx=0;entryDy=0;" parent="1" source="Xt2UL79NBrmuucX9y0JM-20" target="Xt2UL79NBrmuucX9y0JM-2" edge="1">
          <mxGeometry relative="1" as="geometry" />
        </mxCell>
        <mxCell id="Xt2UL79NBrmuucX9y0JM-20" value="提示用户手机号码输入有误" style="whiteSpace=wrap;html=1;" parent="1" vertex="1">
          <mxGeometry x="810" y="280" width="120" height="60" as="geometry" />
        </mxCell>
        <mxCell id="Xt2UL79NBrmuucX9y0JM-22" value="否" style="text;html=1;align=center;verticalAlign=middle;resizable=0;points=[];autosize=1;strokeColor=none;fillColor=none;" parent="1" vertex="1">
          <mxGeometry x="680" y="278" width="40" height="30" as="geometry" />
        </mxCell>
        <mxCell id="cuZhw7LWAMA9tIme9xCt-6" style="edgeStyle=orthogonalEdgeStyle;rounded=0;orthogonalLoop=1;jettySize=auto;html=1;exitX=1;exitY=0.5;exitDx=0;exitDy=0;" edge="1" parent="1" source="cuZhw7LWAMA9tIme9xCt-1" target="cuZhw7LWAMA9tIme9xCt-5">
          <mxGeometry relative="1" as="geometry" />
        </mxCell>
        <mxCell id="cuZhw7LWAMA9tIme9xCt-1" value="图形验证码流程" style="whiteSpace=wrap;html=1;" vertex="1" parent="1">
          <mxGeometry x="480" y="450" width="120" height="60" as="geometry" />
        </mxCell>
        <mxCell id="cuZhw7LWAMA9tIme9xCt-3" value="是" style="text;html=1;align=center;verticalAlign=middle;resizable=0;points=[];autosize=1;strokeColor=none;fillColor=none;" vertex="1" parent="1">
          <mxGeometry x="540" y="390" width="40" height="30" as="geometry" />
        </mxCell>
        <mxCell id="cuZhw7LWAMA9tIme9xCt-8" style="edgeStyle=orthogonalEdgeStyle;rounded=0;orthogonalLoop=1;jettySize=auto;html=1;exitX=0.5;exitY=1;exitDx=0;exitDy=0;entryX=1;entryY=0.5;entryDx=0;entryDy=0;" edge="1" parent="1" source="cuZhw7LWAMA9tIme9xCt-5" target="cuZhw7LWAMA9tIme9xCt-7">
          <mxGeometry relative="1" as="geometry" />
        </mxCell>
        <mxCell id="cuZhw7LWAMA9tIme9xCt-5" value="输入验证码页面" style="whiteSpace=wrap;html=1;" vertex="1" parent="1">
          <mxGeometry x="810" y="450" width="120" height="60" as="geometry" />
        </mxCell>
        <mxCell id="cuZhw7LWAMA9tIme9xCt-11" style="edgeStyle=orthogonalEdgeStyle;rounded=0;orthogonalLoop=1;jettySize=auto;html=1;exitX=0;exitY=0.5;exitDx=0;exitDy=0;entryX=1;entryY=0.5;entryDx=0;entryDy=0;" edge="1" parent="1" source="cuZhw7LWAMA9tIme9xCt-7" target="cuZhw7LWAMA9tIme9xCt-10">
          <mxGeometry relative="1" as="geometry" />
        </mxCell>
        <mxCell id="cuZhw7LWAMA9tIme9xCt-7" value="发送验证码" style="whiteSpace=wrap;html=1;" vertex="1" parent="1">
          <mxGeometry x="480" y="600" width="120" height="60" as="geometry" />
        </mxCell>
        <mxCell id="cuZhw7LWAMA9tIme9xCt-13" style="edgeStyle=orthogonalEdgeStyle;rounded=0;orthogonalLoop=1;jettySize=auto;html=1;exitX=0.5;exitY=0;exitDx=0;exitDy=0;entryX=0.5;entryY=1;entryDx=0;entryDy=0;" edge="1" parent="1" source="cuZhw7LWAMA9tIme9xCt-10" target="cuZhw7LWAMA9tIme9xCt-12">
          <mxGeometry relative="1" as="geometry" />
        </mxCell>
        <mxCell id="cuZhw7LWAMA9tIme9xCt-17" style="edgeStyle=orthogonalEdgeStyle;rounded=0;orthogonalLoop=1;jettySize=auto;html=1;exitX=0.5;exitY=1;exitDx=0;exitDy=0;entryX=0;entryY=0.5;entryDx=0;entryDy=0;" edge="1" parent="1" source="cuZhw7LWAMA9tIme9xCt-10" target="cuZhw7LWAMA9tIme9xCt-16">
          <mxGeometry relative="1" as="geometry" />
        </mxCell>
        <mxCell id="cuZhw7LWAMA9tIme9xCt-10" value="是否收到验证码" style="rhombus;whiteSpace=wrap;html=1;" vertex="1" parent="1">
          <mxGeometry x="110" y="590" width="140" height="80" as="geometry" />
        </mxCell>
        <mxCell id="cuZhw7LWAMA9tIme9xCt-22" style="edgeStyle=orthogonalEdgeStyle;rounded=0;orthogonalLoop=1;jettySize=auto;html=1;exitX=1;exitY=0.5;exitDx=0;exitDy=0;entryX=0;entryY=0.5;entryDx=0;entryDy=0;" edge="1" parent="1" source="cuZhw7LWAMA9tIme9xCt-12" target="cuZhw7LWAMA9tIme9xCt-1">
          <mxGeometry relative="1" as="geometry" />
        </mxCell>
        <mxCell id="cuZhw7LWAMA9tIme9xCt-12" value="60秒之后重新获取验证码" style="whiteSpace=wrap;html=1;" vertex="1" parent="1">
          <mxGeometry x="120" y="450" width="120" height="60" as="geometry" />
        </mxCell>
        <mxCell id="cuZhw7LWAMA9tIme9xCt-14" value="否" style="text;html=1;align=center;verticalAlign=middle;resizable=0;points=[];autosize=1;strokeColor=none;fillColor=none;" vertex="1" parent="1">
          <mxGeometry x="180" y="538" width="40" height="30" as="geometry" />
        </mxCell>
        <mxCell id="cuZhw7LWAMA9tIme9xCt-20" style="edgeStyle=orthogonalEdgeStyle;rounded=0;orthogonalLoop=1;jettySize=auto;html=1;exitX=1;exitY=0.5;exitDx=0;exitDy=0;" edge="1" parent="1" source="cuZhw7LWAMA9tIme9xCt-16" target="cuZhw7LWAMA9tIme9xCt-19">
          <mxGeometry relative="1" as="geometry" />
        </mxCell>
        <mxCell id="cuZhw7LWAMA9tIme9xCt-27" style="edgeStyle=orthogonalEdgeStyle;rounded=0;orthogonalLoop=1;jettySize=auto;html=1;exitX=0.5;exitY=1;exitDx=0;exitDy=0;entryX=0.5;entryY=0;entryDx=0;entryDy=0;" edge="1" parent="1" source="cuZhw7LWAMA9tIme9xCt-16" target="cuZhw7LWAMA9tIme9xCt-26">
          <mxGeometry relative="1" as="geometry" />
        </mxCell>
        <mxCell id="cuZhw7LWAMA9tIme9xCt-16" value="判断验证码是否超时" style="rhombus;whiteSpace=wrap;html=1;" vertex="1" parent="1">
          <mxGeometry x="450" y="780" width="180" height="80" as="geometry" />
        </mxCell>
        <mxCell id="cuZhw7LWAMA9tIme9xCt-18" value="是" style="text;html=1;align=center;verticalAlign=middle;resizable=0;points=[];autosize=1;strokeColor=none;fillColor=none;" vertex="1" parent="1">
          <mxGeometry x="180" y="728" width="40" height="30" as="geometry" />
        </mxCell>
        <mxCell id="cuZhw7LWAMA9tIme9xCt-21" style="edgeStyle=orthogonalEdgeStyle;rounded=0;orthogonalLoop=1;jettySize=auto;html=1;exitX=1;exitY=0.5;exitDx=0;exitDy=0;" edge="1" parent="1" source="cuZhw7LWAMA9tIme9xCt-19" target="cuZhw7LWAMA9tIme9xCt-12">
          <mxGeometry relative="1" as="geometry">
            <Array as="points">
              <mxPoint x="1020" y="820" />
              <mxPoint x="1020" y="1800" />
              <mxPoint x="70" y="1800" />
              <mxPoint x="70" y="480" />
            </Array>
          </mxGeometry>
        </mxCell>
        <mxCell id="cuZhw7LWAMA9tIme9xCt-19" value="提示用户验证码超时" style="whiteSpace=wrap;html=1;" vertex="1" parent="1">
          <mxGeometry x="810" y="790" width="120" height="60" as="geometry" />
        </mxCell>
        <mxCell id="cuZhw7LWAMA9tIme9xCt-23" value="是" style="text;html=1;align=center;verticalAlign=middle;resizable=0;points=[];autosize=1;strokeColor=none;fillColor=none;" vertex="1" parent="1">
          <mxGeometry x="700" y="790" width="40" height="30" as="geometry" />
        </mxCell>
        <mxCell id="cuZhw7LWAMA9tIme9xCt-30" style="edgeStyle=orthogonalEdgeStyle;rounded=0;orthogonalLoop=1;jettySize=auto;html=1;exitX=1;exitY=0.5;exitDx=0;exitDy=0;" edge="1" parent="1" source="cuZhw7LWAMA9tIme9xCt-26" target="cuZhw7LWAMA9tIme9xCt-29">
          <mxGeometry relative="1" as="geometry" />
        </mxCell>
        <mxCell id="cuZhw7LWAMA9tIme9xCt-32" style="edgeStyle=orthogonalEdgeStyle;rounded=0;orthogonalLoop=1;jettySize=auto;html=1;exitX=0.5;exitY=1;exitDx=0;exitDy=0;entryX=0.5;entryY=0;entryDx=0;entryDy=0;" edge="1" parent="1" source="cuZhw7LWAMA9tIme9xCt-26" target="cuZhw7LWAMA9tIme9xCt-31">
          <mxGeometry relative="1" as="geometry" />
        </mxCell>
        <mxCell id="cuZhw7LWAMA9tIme9xCt-26" value="验证码是否正确" style="rhombus;whiteSpace=wrap;html=1;" vertex="1" parent="1">
          <mxGeometry x="450" y="910" width="180" height="80" as="geometry" />
        </mxCell>
        <mxCell id="cuZhw7LWAMA9tIme9xCt-28" value="否" style="text;html=1;align=center;verticalAlign=middle;resizable=0;points=[];autosize=1;strokeColor=none;fillColor=none;" vertex="1" parent="1">
          <mxGeometry x="540" y="868" width="40" height="30" as="geometry" />
        </mxCell>
        <mxCell id="cuZhw7LWAMA9tIme9xCt-29" value="提示用户验证码输入错误" style="whiteSpace=wrap;html=1;" vertex="1" parent="1">
          <mxGeometry x="810" y="920" width="120" height="60" as="geometry" />
        </mxCell>
        <mxCell id="cuZhw7LWAMA9tIme9xCt-31" value="判断手机号码是否注册" style="rhombus;whiteSpace=wrap;html=1;" vertex="1" parent="1">
          <mxGeometry x="450" y="1060" width="180" height="80" as="geometry" />
        </mxCell>
        <mxCell id="cuZhw7LWAMA9tIme9xCt-33" value="否" style="text;html=1;align=center;verticalAlign=middle;resizable=0;points=[];autosize=1;strokeColor=none;fillColor=none;" vertex="1" parent="1">
          <mxGeometry x="700" y="918" width="40" height="30" as="geometry" />
        </mxCell>
        <mxCell id="cuZhw7LWAMA9tIme9xCt-34" value="是" style="text;html=1;align=center;verticalAlign=middle;resizable=0;points=[];autosize=1;strokeColor=none;fillColor=none;" vertex="1" parent="1">
          <mxGeometry x="530" y="1008" width="40" height="30" as="geometry" />
        </mxCell>
      </root>
    </mxGraphModel>
  </diagram>
</mxfile>
